<?xml version="1.0" encoding="utf-8"?>
<svg viewBox="571.633 257.849 40.612 39.375" xmlns="http://www.w3.org/2000/svg">
  <path d="M 589.659 257.99 C 580.3 259.005 572.771 266.519 571.754 275.658 C 570.736 285.203 576.23 293.733 584.573 296.982 C 585.183 297.185 585.793 296.779 585.793 295.967 L 585.793 292.718 C 585.793 292.718 584.979 292.92 583.961 292.92 C 581.113 292.92 579.892 290.483 579.688 289.062 C 579.485 288.249 579.078 287.64 578.468 287.03 C 577.858 286.828 577.654 286.828 577.654 286.625 C 577.654 286.219 578.265 286.219 578.468 286.219 C 579.688 286.219 580.706 287.64 581.113 288.249 C 582.131 289.874 583.351 290.28 583.961 290.28 C 584.776 290.28 585.386 290.077 585.793 289.874 C 585.996 288.453 586.607 287.03 587.828 286.219 C 583.148 285.203 579.688 282.563 579.688 278.095 C 579.688 275.862 580.706 273.628 582.131 272.003 C 581.927 271.597 581.723 270.582 581.723 269.159 C 581.723 268.348 581.723 267.129 582.335 265.91 C 582.335 265.91 585.183 265.91 588.031 268.55 C 589.049 268.144 590.473 267.942 591.897 267.942 C 593.322 267.942 594.745 268.144 595.967 268.55 C 598.612 265.91 601.665 265.91 601.665 265.91 C 602.071 267.129 602.071 268.348 602.071 269.159 C 602.071 270.784 601.868 271.597 601.665 272.003 C 603.088 273.628 604.106 275.658 604.106 278.095 C 604.106 282.563 600.647 285.203 595.967 286.219 C 597.188 287.234 598.002 289.062 598.002 290.889 L 598.002 296.169 C 598.002 296.779 598.612 297.388 599.426 297.185 C 606.954 294.139 612.245 286.828 612.245 278.298 C 612.245 266.113 601.868 256.568 589.659 257.99 Z" style="fill: rgb(255, 255, 255);"/>
</svg>